<?xml version="1.0" encoding="UTF-8"?>
<svg width="176px" height="36px" viewBox="0 0 176 36" version="1.1" xmlns="http://www.w3.org/2000/svg" xmlns:xlink="http://www.w3.org/1999/xlink">
    <!-- Generator: Sketch 44.1 (41455) - http://www.bohemiancoding.com/sketch -->
    <title>Logo</title>
    <desc>Created with Sketch.</desc>
    <defs>
        <polygon id="path-1" points="10.4617915 13.2413439 10.4617915 0.253631655 0.15255273 0.253631655 0.15255273 13.2413439 10.4617915 13.2413439"></polygon>
        <polygon id="path-3" points="2.80204967e-20 0.0982359712 2.80204967e-20 7.79187626 7.67747665 7.79187626 7.67747665 0.0982359712 0 0.0982359712"></polygon>
        <polygon id="path-5" points="7.84474126 0.120690647 0.167161233 0.120690647 0.167161233 7.81427914 7.84474126 7.81427914 7.84474126 0.120690647"></polygon>
    </defs>
    <g id="Desktop" stroke="none" stroke-width="1" fill="none" fill-rule="evenodd">
        <g id="Landing-Page" transform="translate(-236.000000, -20.000000)">
            <g id="header">
                <g id="Logo" transform="translate(230.000000, 14.000000)">
                    <g transform="translate(6.000000, 6.000000)">
                        <path d="M53.3224693,23.3061151 C55.90923,23.3061151 57.3203313,21.1590647 57.3203313,18.592705 C57.3203313,15.3459712 55.5954796,13.7485036 53.3485721,13.7485036 C51.3104869,13.7485036 49.1413709,15.4241871 49.1413709,18.6711799 C49.1413709,21.2375396 50.7354502,23.3061151 53.3224693,23.3061151 L53.3224693,23.3061151 Z M49.1413709,29.2764173 C49.1413709,29.6431511 48.8542402,29.9311511 48.4882843,29.9311511 L47.8613004,29.9311511 C47.4953445,29.9311511 47.2079554,29.6431511 47.2079554,29.2764173 L47.2079554,13.0414532 C47.2079554,12.6747194 47.4953445,12.3869784 47.8613004,12.3869784 L48.4882843,12.3869784 C48.8542402,12.3869784 49.1413709,12.6747194 49.1413709,13.0414532 L49.1413709,14.5601871 L49.1677322,14.5601871 C49.6642021,13.8008201 50.9967366,12.0464029 53.7142696,12.0464029 C56.4056999,12.0464029 59.3845192,14.0365036 59.3845192,18.5403885 C59.3845192,22.3897986 56.7191918,25.0343741 53.3744164,25.0343741 C51.2060758,25.0343741 49.7949744,23.8297986 49.1677322,22.7039568 L49.1413709,22.7039568 L49.1413709,29.2764173 Z" id="Fill-1" fill="#484747"></path>
                        <path d="M63.4863272,6.8615741 C63.4863272,6.49509928 63.7737163,6.20709928 64.1394138,6.20709928 L64.7666561,6.20709928 C65.132612,6.20709928 65.4197427,6.49509928 65.4197427,6.8615741 L65.4197427,24.0392719 C65.4197427,24.4057468 65.132612,24.6940058 64.7666561,24.6940058 L64.1394138,24.6940058 C63.7737163,24.6940058 63.4863272,24.4057468 63.4863272,24.0392719 L63.4863272,6.8615741 Z" id="Fill-3" fill="#484747"></path>
                        <path d="M70.0443301,13.041505 C70.0443301,12.6747712 70.3317192,12.3870302 70.6976752,12.3870302 L71.2985562,12.3870302 C71.6645122,12.3870302 71.9519013,12.6747712 71.9519013,13.041505 L71.9519013,19.8234906 C71.9519013,22.4157496 73.571825,23.1751165 74.9307207,23.1751165 C76.7075195,23.1751165 78.6670379,21.7874331 78.6670379,19.2210734 L78.6670379,13.041505 C78.6670379,12.6747712 78.9546855,12.3870302 79.320383,12.3870302 L79.9215225,12.3870302 C80.2874784,12.3870302 80.5746091,12.6747712 80.5746091,13.041505 L80.5746091,24.0393755 C80.5746091,24.4058504 80.2874784,24.6938504 79.9215225,24.6938504 L79.320383,24.6938504 C78.9546855,24.6938504 78.6670379,24.4058504 78.6670379,24.0393755 L78.6670379,22.5991165 L78.6150907,22.5991165 C77.7787677,24.1704259 76.1849468,24.8772173 74.408148,24.8772173 C72.9448411,24.8772173 70.0443301,24.1181094 70.0443301,20.6613324 L70.0443301,13.041505 Z" id="Fill-5" fill="#484747"></path>
                        <path d="M84.7286485,21.2898043 L85.4339407,21.2898043 C85.8521022,21.2898043 86.0353386,21.551905 86.1658526,21.9442791 C86.4532417,22.8085381 87.2893063,23.4371137 89.2490831,23.4371137 C91.1566543,23.4371137 92.5938584,22.8349554 92.5938584,21.3944374 C92.5938584,20.1378043 91.862205,19.6402791 88.9875383,19.2212288 C86.4793445,18.8806532 84.6500816,18.3308115 84.6500816,15.8434446 C84.6500816,13.2773439 86.8711448,12.0466101 89.6669862,12.0466101 C92.1495941,12.0466101 94.0308041,13.1198763 94.344296,15.2671856 C94.3967601,15.6077612 94.1352153,15.9216604 93.7956206,15.9216604 L93.1161727,15.9216604 C92.6982696,15.9216604 92.5152916,15.6600777 92.3847777,15.2671856 C92.0710273,14.2982935 91.2610655,13.5912432 89.4842667,13.5912432 C87.9426514,13.5912432 86.5315501,14.3506101 86.5315501,15.686236 C86.5315501,16.9954446 87.3154091,17.2834446 89.5889363,17.6240201 C92.4891888,18.0428115 94.5011712,18.6975453 94.5011712,21.263646 C94.5011712,23.1491137 93.1425339,25.0343223 89.3012887,25.0343223 C85.8001551,25.0343223 84.5720317,23.7774302 84.2060758,21.9442791 C84.1277674,21.6042216 84.3890537,21.2898043 84.7286485,21.2898043" id="Fill-7" fill="#484747"></path>
                        <path d="M110.49174,12.0465065 C112.895781,12.0465065 114.567911,12.9892403 115.299823,14.5864489 C115.456439,14.9008662 115.273461,15.267341 114.933867,15.3719741 L114.306624,15.555341 C113.914824,15.6599741 113.601074,15.4766072 113.392251,15.1362906 C112.86942,14.3246072 112.033614,13.7747655 110.465638,13.7747655 C107.774207,13.7747655 106.284798,15.9741324 106.284798,18.8023338 C106.284798,21.028118 107.434613,23.3062187 110.465638,23.3062187 C112.033614,23.3062187 112.895781,22.6776432 113.418096,21.8398014 C113.627435,21.5256432 113.86236,21.2897007 114.228316,21.4207511 L115.012175,21.6825928 C115.352028,21.7872259 115.482801,22.1539597 115.325667,22.4422187 C114.541808,23.7511683 113.052398,25.0342187 110.439535,25.0342187 C106.441673,25.0342187 104.22061,22.2588518 104.22061,18.8023338 C104.22061,14.5338734 107.068657,12.0465065 110.49174,12.0465065" id="Fill-9" fill="#484747"></path>
                        <path d="M124.914591,23.3061151 C127.553816,23.3061151 129.199843,21.3421727 129.199843,18.5403885 C129.199843,15.7909209 127.553816,13.8008201 124.914591,13.8008201 C122.301728,13.8008201 120.655702,15.7909209 120.655702,18.5403885 C120.655702,21.3421727 122.301728,23.3061151 124.914591,23.3061151 M124.914591,12.0464029 C129.382821,12.0464029 131.264031,15.2936547 131.264031,18.5403885 C131.264031,21.8135396 129.017123,25.0343741 124.914591,25.0343741 C120.498568,25.0343741 118.590997,21.8135396 118.590997,18.5403885 C118.590997,15.2936547 120.81206,12.0464029 124.914591,12.0464029" id="Fill-11" fill="#484747"></path>
                        <path d="M140.644055,23.3061151 C142.656038,23.3061151 144.877101,21.6301727 144.877101,18.3831799 C144.877101,15.8170791 143.283021,13.7485036 140.670158,13.7485036 C138.083397,13.7485036 136.672296,15.8958129 136.672296,18.4619137 C136.672296,21.7089065 138.396889,23.3061151 140.644055,23.3061151 M140.617694,12.0464029 C142.865118,12.0464029 144.197653,13.1725036 144.824637,14.2983453 L144.877101,14.2983453 L144.877101,6.8616259 C144.877101,6.49515108 145.164231,6.20715108 145.530187,6.20715108 L146.105224,6.20715108 C146.470922,6.20715108 146.758311,6.49515108 146.758311,6.8616259 L146.758311,24.0393237 C146.758311,24.4057986 146.470922,24.6937986 146.105224,24.6937986 L145.530187,24.6937986 C145.164231,24.6937986 144.877101,24.4057986 144.877101,24.0393237 L144.877101,22.5467482 L144.824637,22.5467482 C144.275961,23.5156403 142.760449,25.0343741 140.278099,25.0343741 C137.586669,25.0343741 134.608108,23.0442734 134.608108,18.5403885 C134.608108,14.6909784 137.273177,12.0464029 140.617694,12.0464029" id="Fill-13" fill="#484747"></path>
                        <path d="M160.580539,17.4145209 C160.580539,15.3718446 159.273849,13.6961612 156.896169,13.6961612 C153.943453,13.6961612 152.92441,15.7385784 152.715329,17.4145209 L160.580539,17.4145209 Z M156.92253,12.046377 C160.214583,12.046377 162.592522,13.9841612 162.592522,18.1738878 C162.592522,18.8022043 162.252927,18.9853122 161.860868,18.9853122 L152.689485,18.9853122 C152.689485,21.5778302 154.30915,23.3325065 156.896169,23.3325065 C158.646865,23.3325065 159.744475,22.5728806 160.371458,21.7611971 C160.6069,21.4467799 160.841826,21.3159885 161.207523,21.4467799 L161.860868,21.656564 C162.17436,21.7611971 162.305132,22.1799885 162.095793,22.4682475 C161.024804,24.1180317 159.221643,25.0343482 156.765397,25.0343482 C152.454301,25.0343482 150.625038,21.8658302 150.625038,18.7498878 C150.625038,14.8484201 153.081027,12.046377 156.92253,12.046377 L156.92253,12.046377 Z" id="Fill-15" fill="#484747"></path>
                        <g id="Group-19" transform="translate(165.403818, 11.792978)">
                            <mask id="mask-2" fill="white">
                                <use xlink:href="#path-1"></use>
                            </mask>
                            <g id="Clip-18"></g>
                            <path d="M0.689346256,9.4968259 L1.39463847,9.4968259 C1.8128,9.4968259 1.99577797,9.75892662 2.12655037,10.1513007 C2.41368106,11.0155597 3.25000411,11.6441353 5.20952247,11.6441353 C7.11709369,11.6441353 8.5542978,11.041977 8.5542978,9.60145899 C8.5542978,8.3448259 7.82290279,7.84730072 4.94823612,7.42825036 C2.43978385,7.08767482 0.610520999,6.53783309 0.610520999,4.05046619 C0.610520999,1.48436547 2.83184258,0.253631655 5.62742555,0.253631655 C8.11003348,0.253631655 9.99124347,1.32689784 10.3049938,3.47420719 C10.3571994,3.81478273 10.0956546,4.12868201 9.75605991,4.12868201 L9.07687048,4.12868201 C8.65870896,4.12868201 8.47598943,3.86709928 8.34521703,3.47420719 C8.03172511,2.50531511 7.22150485,1.79826475 5.44470602,1.79826475 C3.90334919,1.79826475 2.49224787,2.55763165 2.49224787,3.89325755 C2.49224787,5.20246619 3.2761069,5.49046619 5.54937562,5.83104173 C8.44962819,6.24983309 10.461869,6.90456691 10.461869,9.47066763 C10.461869,11.3561353 9.10297327,13.2413439 5.26172805,13.2413439 C1.76059442,13.2413439 0.532471072,11.9844518 0.166515125,10.1513007 C0.0882067548,9.81124317 0.349751542,9.4968259 0.689346256,9.4968259" id="Fill-17" fill="#484747" mask="url(#mask-2)"></path>
                        </g>
                        <g id="Group-22" transform="translate(0.000000, 14.123914)">
                            <mask id="mask-4" fill="white">
                                <use xlink:href="#path-3"></use>
                            </mask>
                            <g id="Clip-21"></g>
                            <path d="M7.67747665,3.94505612 C7.67747665,6.0695741 5.95882761,7.79187626 3.83881586,7.79187626 C1.71854567,7.79187626 -0.000103377386,6.0695741 -0.000103377386,3.94505612 C-0.000103377386,1.82053813 1.71854567,0.0982359712 3.83881586,0.0982359712 C5.95882761,0.0982359712 7.67747665,1.82053813 7.67747665,3.94505612" id="Fill-20" fill="#57C4D2" mask="url(#mask-4)"></path>
                        </g>
                        <path d="M17.9620276,21.9157899 C15.8417574,21.9157899 14.1231084,20.1934878 14.1231084,18.0689698 C14.1231084,15.9444518 15.8417574,14.2221496 17.9620276,14.2221496 C20.0820394,14.2221496 21.8006884,15.9444518 21.8006884,18.0689698 C21.8006884,20.1934878 20.0820394,21.9157899 17.9620276,21.9157899 Z" id="Fill-23" fill="#57C4D2"></path>
                        <path d="M21.8006884,32.0324115 C21.8006884,34.1569295 20.0820394,35.8792317 17.9620276,35.8792317 C15.8417574,35.8792317 14.1231084,34.1569295 14.1231084,32.0324115 C14.1231084,29.9078935 15.8417574,28.1855914 17.9620276,28.1855914 C20.0820394,28.1855914 21.8006884,29.9078935 21.8006884,32.0324115" id="Fill-25" fill="#57C4D2"></path>
                        <g id="Group-29" transform="translate(13.955947, 0.138302)">
                            <mask id="mask-6" fill="white">
                                <use xlink:href="#path-5"></use>
                            </mask>
                            <g id="Clip-28"></g>
                            <path d="M7.84474126,3.96745899 C7.84474126,6.09197698 6.12609222,7.81427914 4.00608047,7.81427914 C1.88581028,7.81427914 0.167161233,6.09197698 0.167161233,3.96745899 C0.167161233,1.84294101 1.88581028,0.120638849 4.00608047,0.120638849 C6.12609222,0.120638849 7.84474126,1.84294101 7.84474126,3.96745899" id="Fill-27" fill="#57C4D2" mask="url(#mask-6)"></path>
                        </g>
                        <path d="M31.8956711,21.9157899 C29.7754009,21.9157899 28.0567518,20.1934878 28.0567518,18.0689698 C28.0567518,15.9444518 29.7754009,14.2221496 31.8956711,14.2221496 C34.0156828,14.2221496 35.7343319,15.9444518 35.7343319,18.0689698 C35.7343319,20.1934878 34.0156828,21.9157899 31.8956711,21.9157899 Z" id="Fill-30" fill="#57C4D2"></path>
                    </g>
                </g>
            </g>
        </g>
    </g>
</svg>
