<?xml version="1.0" standalone="no"?>
<!DOCTYPE svg PUBLIC "-//W3C//DTD SVG 20010904//EN"
 "http://www.w3.org/TR/2001/REC-SVG-20010904/DTD/svg10.dtd">
<svg version="1.0" xmlns="http://www.w3.org/2000/svg"
 width="512.000000pt" height="512.000000pt" viewBox="0 0 512.000000 512.000000"
 preserveAspectRatio="xMidYMid meet">
<metadata>
Created by potrace 1.11, written by Peter Selinger 2001-2013
</metadata>
<g transform="translate(0.000000,512.000000) scale(0.100000,-0.100000)"
fill="#000000" stroke="none">
<path d="M2465 5099 c-189 -44 -331 -164 -402 -339 -99 -246 6 -546 237 -677
214 -122 497 -84 663 90 218 228 211 571 -15 788 -57 55 -160 111 -238 131
-66 17 -190 20 -245 7z"/>
<path d="M425 3096 c-201 -50 -372 -224 -414 -421 -15 -74 -6 -220 18 -288 47
-134 146 -250 268 -314 226 -119 512 -62 676 136 49 59 103 171 116 241 14 77
6 214 -17 282 -57 170 -202 308 -375 357 -74 21 -202 25 -272 7z"/>
<path d="M2440 3094 c-154 -41 -286 -147 -354 -284 -20 -41 -39 -86 -42 -100
-18 -87 -20 -111 -19 -160 3 -77 11 -120 36 -184 94 -253 371 -402 634 -341
249 57 430 285 427 536 -2 237 -141 432 -369 520 -74 28 -232 35 -313 13z"/>
<path d="M4455 3098 c-91 -17 -193 -74 -271 -152 -114 -114 -159 -222 -159
-386 0 -83 5 -119 23 -172 77 -224 290 -378 524 -378 144 0 275 56 383 165
214 213 219 540 13 760 -131 141 -318 200 -513 163z"/>
<path d="M2485 1104 c-139 -34 -207 -68 -290 -148 -190 -183 -225 -481 -81
-694 49 -72 76 -101 141 -146 104 -73 199 -104 321 -104 255 0 482 184 534
432 70 337 -170 649 -510 661 -52 2 -104 2 -115 -1z"/>
</g>
</svg>
